<mxfile host="app.diagrams.net" agent="Mozilla/5.0 (X11; Linux x86_64) AppleWebKit/537.36 (KHTML, like Gecko) Chrome/130.0.0.0 Safari/537.36" version="24.8.6">
  <diagram name="Pagina-1" id="Dq337kMYc3OfmYVG_zXd">
    <mxGraphModel dx="1155" dy="655" grid="1" gridSize="10" guides="1" tooltips="1" connect="1" arrows="1" fold="1" page="1" pageScale="1" pageWidth="827" pageHeight="1169" math="0" shadow="0">
      <root>
        <mxCell id="0" />
        <mxCell id="1" parent="0" />
        <mxCell id="qUYouzzlphUmMhYxDDfb-4" style="edgeStyle=orthogonalEdgeStyle;shape=connector;rounded=0;orthogonalLoop=1;jettySize=auto;html=1;entryX=0.025;entryY=0.321;entryDx=0;entryDy=0;strokeColor=default;align=center;verticalAlign=middle;fontFamily=Helvetica;fontSize=11;fontColor=default;labelBackgroundColor=default;endArrow=none;endFill=0;entryPerimeter=0;" edge="1" parent="1" source="hLIld5QHmvVF-c1tkZJ5-1" target="hLIld5QHmvVF-c1tkZJ5-4">
          <mxGeometry relative="1" as="geometry">
            <Array as="points">
              <mxPoint x="298" y="285" />
              <mxPoint x="298" y="283" />
            </Array>
          </mxGeometry>
        </mxCell>
        <mxCell id="qUYouzzlphUmMhYxDDfb-19" style="edgeStyle=orthogonalEdgeStyle;shape=connector;rounded=0;orthogonalLoop=1;jettySize=auto;html=1;strokeColor=default;align=center;verticalAlign=middle;fontFamily=Helvetica;fontSize=11;fontColor=default;labelBackgroundColor=default;endArrow=none;endFill=0;" edge="1" parent="1" source="hLIld5QHmvVF-c1tkZJ5-1">
          <mxGeometry relative="1" as="geometry">
            <mxPoint x="250" y="150" as="targetPoint" />
          </mxGeometry>
        </mxCell>
        <mxCell id="hLIld5QHmvVF-c1tkZJ5-1" value="User" style="shape=umlActor;verticalLabelPosition=bottom;verticalAlign=top;html=1;outlineConnect=0;" parent="1" vertex="1">
          <mxGeometry x="90" y="255" width="30" height="60" as="geometry" />
        </mxCell>
        <mxCell id="qUYouzzlphUmMhYxDDfb-1" style="edgeStyle=orthogonalEdgeStyle;rounded=0;orthogonalLoop=1;jettySize=auto;html=1;entryX=0;entryY=0.5;entryDx=0;entryDy=0;endArrow=none;endFill=0;" edge="1" parent="1" source="hLIld5QHmvVF-c1tkZJ5-2" target="hLIld5QHmvVF-c1tkZJ5-20">
          <mxGeometry relative="1" as="geometry">
            <mxPoint x="120" y="390" as="sourcePoint" />
            <Array as="points">
              <mxPoint x="120" y="510" />
              <mxPoint x="120" y="655" />
            </Array>
          </mxGeometry>
        </mxCell>
        <mxCell id="qUYouzzlphUmMhYxDDfb-8" style="edgeStyle=orthogonalEdgeStyle;shape=connector;rounded=0;orthogonalLoop=1;jettySize=auto;html=1;strokeColor=default;align=center;verticalAlign=middle;fontFamily=Helvetica;fontSize=11;fontColor=default;labelBackgroundColor=default;endArrow=none;endFill=0;" edge="1" parent="1" source="hLIld5QHmvVF-c1tkZJ5-2" target="qUYouzzlphUmMhYxDDfb-7">
          <mxGeometry relative="1" as="geometry">
            <Array as="points">
              <mxPoint x="335" y="510" />
              <mxPoint x="335" y="510" />
            </Array>
          </mxGeometry>
        </mxCell>
        <mxCell id="hLIld5QHmvVF-c1tkZJ5-2" value="Tecnico" style="shape=umlActor;verticalLabelPosition=bottom;verticalAlign=top;html=1;outlineConnect=0;" parent="1" vertex="1">
          <mxGeometry x="190" y="470" width="30" height="60" as="geometry" />
        </mxCell>
        <mxCell id="hLIld5QHmvVF-c1tkZJ5-4" value="Visualizza i suoi ticket" style="ellipse;whiteSpace=wrap;html=1;" parent="1" vertex="1">
          <mxGeometry x="294" y="260" width="140" height="70" as="geometry" />
        </mxCell>
        <mxCell id="hLIld5QHmvVF-c1tkZJ5-6" value="Segue il ticket" style="ellipse;whiteSpace=wrap;html=1;" parent="1" vertex="1">
          <mxGeometry x="190" y="70" width="140" height="70" as="geometry" />
        </mxCell>
        <mxCell id="hLIld5QHmvVF-c1tkZJ5-14" value="Extends" style="html=1;verticalAlign=bottom;endArrow=open;dashed=1;endSize=8;curved=0;rounded=0;strokeColor=default;align=center;fontFamily=Helvetica;fontSize=11;fontColor=default;labelBackgroundColor=default;edgeStyle=orthogonalEdgeStyle;entryX=0.5;entryY=0;entryDx=0;entryDy=0;exitX=0;exitY=0.5;exitDx=0;exitDy=0;" parent="1" target="hLIld5QHmvVF-c1tkZJ5-4" edge="1" source="hLIld5QHmvVF-c1tkZJ5-16">
          <mxGeometry x="0.0038" relative="1" as="geometry">
            <mxPoint x="440" y="152.63" as="sourcePoint" />
            <mxPoint x="343.4974746830583" y="56.378737341529245" as="targetPoint" />
            <mxPoint as="offset" />
            <Array as="points">
              <mxPoint x="550" y="200" />
              <mxPoint x="410" y="200" />
              <mxPoint x="410" y="220" />
              <mxPoint x="364" y="220" />
            </Array>
          </mxGeometry>
        </mxCell>
        <mxCell id="hLIld5QHmvVF-c1tkZJ5-16" value="Aggiunge commento" style="ellipse;whiteSpace=wrap;html=1;fontFamily=Helvetica;fontSize=11;fontColor=default;labelBackgroundColor=default;" parent="1" vertex="1">
          <mxGeometry x="550" y="140" width="140" height="70" as="geometry" />
        </mxCell>
        <mxCell id="hLIld5QHmvVF-c1tkZJ5-17" value="Visualizza calendario" style="ellipse;whiteSpace=wrap;html=1;fontFamily=Helvetica;fontSize=11;fontColor=default;labelBackgroundColor=default;" parent="1" vertex="1">
          <mxGeometry x="300" y="750" width="140" height="70" as="geometry" />
        </mxCell>
        <mxCell id="hLIld5QHmvVF-c1tkZJ5-20" value="Pianifica data&lt;div&gt;intervento del&amp;nbsp; ticket&lt;/div&gt;" style="ellipse;whiteSpace=wrap;html=1;fontFamily=Helvetica;fontSize=11;fontColor=default;labelBackgroundColor=default;" parent="1" vertex="1">
          <mxGeometry x="170" y="615" width="140" height="80" as="geometry" />
        </mxCell>
        <mxCell id="qUYouzzlphUmMhYxDDfb-3" value="extends" style="html=1;verticalAlign=bottom;endArrow=none;dashed=1;endSize=8;curved=0;rounded=0;strokeColor=default;align=center;fontFamily=Helvetica;fontSize=11;fontColor=default;labelBackgroundColor=default;edgeStyle=orthogonalEdgeStyle;exitX=0.5;exitY=1;exitDx=0;exitDy=0;entryX=0.417;entryY=-0.024;entryDx=0;entryDy=0;entryPerimeter=0;startArrow=open;startFill=0;endFill=0;" edge="1" parent="1" source="hLIld5QHmvVF-c1tkZJ5-20" target="hLIld5QHmvVF-c1tkZJ5-17">
          <mxGeometry relative="1" as="geometry">
            <mxPoint x="425" y="510" as="sourcePoint" />
            <mxPoint x="345" y="510" as="targetPoint" />
          </mxGeometry>
        </mxCell>
        <mxCell id="qUYouzzlphUmMhYxDDfb-7" value="Gestisce il ticket" style="ellipse;whiteSpace=wrap;html=1;fontFamily=Helvetica;fontSize=11;fontColor=default;labelBackgroundColor=default;" vertex="1" parent="1">
          <mxGeometry x="340" y="480" width="140" height="70" as="geometry" />
        </mxCell>
        <mxCell id="qUYouzzlphUmMhYxDDfb-9" value="Includes" style="html=1;verticalAlign=bottom;endArrow=open;dashed=1;endSize=8;curved=0;rounded=0;strokeColor=default;align=center;fontFamily=Helvetica;fontSize=11;fontColor=default;labelBackgroundColor=default;edgeStyle=orthogonalEdgeStyle;entryX=0.644;entryY=1;entryDx=0;entryDy=0;entryPerimeter=0;exitX=0.5;exitY=0;exitDx=0;exitDy=0;" edge="1" parent="1" source="qUYouzzlphUmMhYxDDfb-7" target="hLIld5QHmvVF-c1tkZJ5-4">
          <mxGeometry x="0.0047" relative="1" as="geometry">
            <mxPoint x="410" y="470" as="sourcePoint" />
            <mxPoint x="490" y="459" as="targetPoint" />
            <mxPoint as="offset" />
            <Array as="points">
              <mxPoint x="410" y="370" />
              <mxPoint x="384" y="370" />
            </Array>
          </mxGeometry>
        </mxCell>
        <mxCell id="qUYouzzlphUmMhYxDDfb-11" value="Ticket Filter" style="ellipse;whiteSpace=wrap;html=1;fontFamily=Helvetica;fontSize=11;fontColor=default;labelBackgroundColor=default;" vertex="1" parent="1">
          <mxGeometry x="560" y="350" width="140" height="70" as="geometry" />
        </mxCell>
        <mxCell id="qUYouzzlphUmMhYxDDfb-12" value="Extends" style="html=1;verticalAlign=bottom;endArrow=open;dashed=1;endSize=8;curved=0;rounded=0;entryX=0.954;entryY=0.679;entryDx=0;entryDy=0;exitX=0.036;exitY=0.357;exitDx=0;exitDy=0;entryPerimeter=0;exitPerimeter=0;" edge="1" parent="1" source="qUYouzzlphUmMhYxDDfb-11" target="hLIld5QHmvVF-c1tkZJ5-4">
          <mxGeometry relative="1" as="geometry">
            <mxPoint x="566" y="280" as="sourcePoint" />
            <mxPoint x="454" y="330" as="targetPoint" />
          </mxGeometry>
        </mxCell>
        <mxCell id="qUYouzzlphUmMhYxDDfb-13" value="Extends" style="html=1;verticalAlign=bottom;endArrow=open;dashed=1;endSize=8;curved=0;rounded=0;entryX=1;entryY=0;entryDx=0;entryDy=0;exitX=0;exitY=1;exitDx=0;exitDy=0;" edge="1" parent="1" source="qUYouzzlphUmMhYxDDfb-11" target="qUYouzzlphUmMhYxDDfb-7">
          <mxGeometry relative="1" as="geometry">
            <mxPoint x="627" y="480" as="sourcePoint" />
            <mxPoint x="490" y="413" as="targetPoint" />
          </mxGeometry>
        </mxCell>
        <mxCell id="qUYouzzlphUmMhYxDDfb-14" value="Aggiorna lo stato" style="ellipse;whiteSpace=wrap;html=1;fontFamily=Helvetica;fontSize=11;fontColor=default;labelBackgroundColor=default;" vertex="1" parent="1">
          <mxGeometry x="400" y="620" width="140" height="70" as="geometry" />
        </mxCell>
        <mxCell id="qUYouzzlphUmMhYxDDfb-16" value="Chiude il ticket" style="ellipse;whiteSpace=wrap;html=1;fontFamily=Helvetica;fontSize=11;fontColor=default;labelBackgroundColor=default;" vertex="1" parent="1">
          <mxGeometry x="574" y="530" width="140" height="70" as="geometry" />
        </mxCell>
        <mxCell id="qUYouzzlphUmMhYxDDfb-17" value="Extends" style="html=1;verticalAlign=bottom;endArrow=open;dashed=1;endSize=8;curved=0;rounded=0;entryX=0.958;entryY=0.631;entryDx=0;entryDy=0;exitX=0.007;exitY=0.345;exitDx=0;exitDy=0;entryPerimeter=0;exitPerimeter=0;" edge="1" parent="1" source="qUYouzzlphUmMhYxDDfb-16" target="qUYouzzlphUmMhYxDDfb-7">
          <mxGeometry relative="1" as="geometry">
            <mxPoint x="602" y="450" as="sourcePoint" />
            <mxPoint x="480" y="530" as="targetPoint" />
          </mxGeometry>
        </mxCell>
        <mxCell id="qUYouzzlphUmMhYxDDfb-18" value="Extends" style="html=1;verticalAlign=bottom;endArrow=open;dashed=1;endSize=8;curved=0;rounded=0;entryX=0.673;entryY=1;entryDx=0;entryDy=0;exitX=0.5;exitY=0;exitDx=0;exitDy=0;entryPerimeter=0;" edge="1" parent="1" source="qUYouzzlphUmMhYxDDfb-14" target="qUYouzzlphUmMhYxDDfb-7">
          <mxGeometry relative="1" as="geometry">
            <mxPoint x="592" y="470" as="sourcePoint" />
            <mxPoint x="470" y="550" as="targetPoint" />
          </mxGeometry>
        </mxCell>
      </root>
    </mxGraphModel>
  </diagram>
</mxfile>
